<svg width="36" height="30" viewBox="0 0 36 30" fill="none" xmlns="http://www.w3.org/2000/svg">
<path d="M1.00012 1H6.20012L11.9001 24.3" stroke="#5C5B60" stroke-width="2" stroke-miterlimit="10" stroke-linecap="round" stroke-linejoin="round"/>
<path d="M8.20007 9.3999H34.2001L29.8001 22.0999H11.5001" stroke="#5C5B60" stroke-width="2" stroke-miterlimit="10" stroke-linecap="round" stroke-linejoin="round"/>
<path d="M12.4001 29.0001C13.6151 29.0001 14.6001 28.0151 14.6001 26.8001C14.6001 25.5851 13.6151 24.6001 12.4001 24.6001C11.185 24.6001 10.2001 25.5851 10.2001 26.8001C10.2001 28.0151 11.185 29.0001 12.4001 29.0001Z" stroke="#5C5B60" stroke-width="2" stroke-miterlimit="10" stroke-linecap="round" stroke-linejoin="round"/>
<path d="M27.6 29.0001C28.8151 29.0001 29.8 28.0151 29.8 26.8001C29.8 25.5851 28.8151 24.6001 27.6 24.6001C26.385 24.6001 25.4 25.5851 25.4 26.8001C25.4 28.0151 26.385 29.0001 27.6 29.0001Z" stroke="#5C5B60" stroke-width="2" stroke-miterlimit="10" stroke-linecap="round" stroke-linejoin="round"/>
<path d="M14.1002 25.1001H26.0002" stroke="#5C5B60" stroke-width="2" stroke-miterlimit="10" stroke-linecap="round" stroke-linejoin="round"/>
</svg>
