<svg width="51" height="49" viewBox="0 0 51 49" fill="none" xmlns="http://www.w3.org/2000/svg">
<path d="M28.6 0.499901V15.2999C28.6 11.7999 25.7999 8.9999 22.2999 8.9999H6.19995C9.69995 8.9999 12.5 11.7999 12.5 15.2999V42.5999H28.6H44.7V0.499901H28.6Z" fill="#BBD700"/>
<path d="M10.3999 10.3999C11.7999 11.5999 12.5999 13.2999 12.5999 15.1999V42.4999H28.6999H44.7999V0.399902H28.6999V15.1999C28.6999 11.6999 25.8999 8.8999 22.3999 8.8999" stroke="black" stroke-width="0.75" stroke-miterlimit="10" stroke-linecap="round" stroke-linejoin="round"/>
<path d="M6.19994 8.8999C4.59995 8.8999 3.19995 9.4999 2.09995 10.3999H18.1999C19.2999 9.4999 20.6999 8.8999 22.2999 8.8999H6.19994Z" fill="white" stroke="black" stroke-width="0.75" stroke-miterlimit="10" stroke-linecap="round" stroke-linejoin="round"/>
<path d="M28.7 17.9999V29.4999" stroke="black" stroke-width="0.75" stroke-miterlimit="10" stroke-linecap="round" stroke-linejoin="round"/>
<path d="M17.2999 47.9999H3.59995L2.59995 36.8999H18.2999L17.2999 47.9999Z" fill="#F5521E" stroke="black" stroke-width="0.75" stroke-miterlimit="10" stroke-linecap="round" stroke-linejoin="round"/>
<path d="M19.2999 34.0999H1.59995V36.7999H19.2999V34.0999Z" fill="white" stroke="black" stroke-width="0.75" stroke-miterlimit="10" stroke-linecap="round" stroke-linejoin="round"/>
<path d="M20.1 35.1999C20.1 39.3999 15.8 42.7999 10.4 42.7999C4.99995 42.7999 0.699951 39.3999 0.699951 35.1999" stroke="black" stroke-width="0.75" stroke-miterlimit="10" stroke-linecap="round" stroke-linejoin="round"/>
<path d="M48.9999 21.4999H35.1999C34.3999 20.6999 34.3999 17.5999 35.1999 16.7999H48.9999V21.4999Z" fill="white" stroke="black" stroke-width="0.75" stroke-miterlimit="10" stroke-linecap="round" stroke-linejoin="round"/>
<path d="M42.9999 26.8999H40.5999V34.6999H42.9999V26.8999Z" fill="white" stroke="black" stroke-width="0.75" stroke-miterlimit="10" stroke-linecap="round" stroke-linejoin="round"/>
<path d="M34.4 19.2999H33.2V23.1999L41.7 24.6999V26.6999" stroke="black" stroke-width="0.75" stroke-miterlimit="10" stroke-linecap="round" stroke-linejoin="round"/>
<path d="M35.8 18.2999H43.5" stroke="black" stroke-width="0.75" stroke-miterlimit="10" stroke-linecap="round" stroke-linejoin="round"/>
<path d="M45.3 18.2999H47" stroke="black" stroke-width="0.75" stroke-miterlimit="10" stroke-linecap="round" stroke-linejoin="round"/>
<path d="M48.9999 21.3999C49.5522 21.3999 49.9999 20.3702 49.9999 19.0999C49.9999 17.8297 49.5522 16.7999 48.9999 16.7999C48.4477 16.7999 47.9999 17.8297 47.9999 19.0999C47.9999 20.3702 48.4477 21.3999 48.9999 21.3999Z" fill="white" stroke="black" stroke-width="0.75" stroke-miterlimit="10" stroke-linecap="round" stroke-linejoin="round"/>
<path d="M5.39996 26.5999C5.69996 27.1999 6.89996 29.5999 7.19996 30.3999C7.69996 30.2999 8.39996 29.9999 9.09996 29.6999C8.89996 29.1999 8.49996 27.8999 8.29996 27.1999C8.49996 27.5999 9.29996 29.0999 9.59996 29.3999C10.8 28.7999 12.3 27.9999 13 27.0999C12.3 26.2999 11.3 24.8999 10.6 23.5999" fill="#F5521E"/>
<path d="M5.39996 26.5999C5.69996 27.1999 6.89996 29.5999 7.19996 30.3999C7.69996 30.2999 8.39996 29.9999 9.09996 29.6999C8.89996 29.1999 8.49996 27.8999 8.29996 27.1999C8.49996 27.5999 9.29996 29.0999 9.59996 29.3999C10.8 28.7999 12.3 27.9999 13 27.0999C12.3 26.2999 11.3 24.8999 10.6 23.5999" stroke="black" stroke-width="0.75" stroke-miterlimit="10" stroke-linecap="round" stroke-linejoin="round"/>
<path d="M10.6 23.5999L9.29996 21.2999L6.99996 21.4999L4.79996 16.2999C4.49996 15.4999 3.89996 14.7999 2.99996 14.5999L1.89996 14.2999L1.59996 15.3999C1.29996 16.1999 1.49996 17.1999 2.09996 17.7999L5.49996 22.3999L4.19996 24.3999L5.49996 26.6999L10.6 23.5999Z" stroke="black" stroke-width="0.75" stroke-miterlimit="10" stroke-linecap="round" stroke-linejoin="round"/>
</svg>
