<svg width="15" height="15" viewBox="0 0 15 15" fill="none" xmlns="http://www.w3.org/2000/svg">
<path d="M2.34375 3.17676H11.7188C12.0296 3.17676 12.3276 3.29747 12.5474 3.51234C12.7672 3.72722 12.8906 4.01864 12.8906 4.32252V11.1971C12.8906 11.501 12.7672 11.7924 12.5474 12.0073C12.3276 12.2221 12.0296 12.3429 11.7188 12.3429H2.34375C1.69336 12.3429 1.17188 11.8273 1.17188 11.1971V4.32252C1.17188 3.68662 1.69336 3.17676 2.34375 3.17676ZM7.03125 7.18692L11.7188 4.32252H2.34375L7.03125 7.18692ZM2.34375 11.1971H11.7188V5.68025L7.03125 8.53892L2.34375 5.68025V11.1971Z" fill="white"/>
</svg>
