<svg width="15" height="15" viewBox="0 0 15 15" fill="none" xmlns="http://www.w3.org/2000/svg">
<path d="M11.5107 1L14.0002 3.4847L11.5107 5.9694" stroke="#BBD700" stroke-linecap="round" stroke-linejoin="round"/>
<path d="M9.02112 3.48474H14" stroke="#BBD700" stroke-linecap="round" stroke-linejoin="round"/>
<path d="M13.3776 10.8891V12.7526C13.3783 12.9256 13.3428 13.0968 13.2734 13.2553C13.2039 13.4139 13.1021 13.5561 12.9744 13.6731C12.8466 13.7901 12.6958 13.8791 12.5317 13.9345C12.3675 13.9899 12.1935 14.0105 12.0208 13.995C10.1057 13.7873 8.26614 13.1341 6.64987 12.0879C5.14614 11.1342 3.87124 9.86176 2.9157 8.3609C1.8639 6.74038 1.20934 4.89536 1.00505 2.97531C0.989499 2.80354 1.00995 2.63041 1.06511 2.46696C1.12027 2.30351 1.20892 2.15331 1.32542 2.02592C1.44192 1.89854 1.58373 1.79677 1.7418 1.72708C1.89987 1.65739 2.07075 1.62132 2.24355 1.62115H4.11064C4.41267 1.61819 4.70548 1.72494 4.93449 1.92151C5.1635 2.11809 5.31309 2.39107 5.35536 2.68957C5.43416 3.28594 5.58031 3.8715 5.79101 4.43508C5.87475 4.65741 5.89287 4.89904 5.84323 5.13134C5.79359 5.36364 5.67828 5.57686 5.51095 5.74575L4.72055 6.53465C5.60652 8.08978 6.89661 9.37742 8.45472 10.2617L9.24512 9.4728C9.41433 9.30579 9.62796 9.19069 9.86071 9.14115C10.0934 9.09161 10.3355 9.1097 10.5583 9.19327C11.123 9.40357 11.7096 9.54944 12.3071 9.6281C12.6095 9.67066 12.8856 9.82265 13.0829 10.0551C13.2803 10.2876 13.3852 10.5844 13.3776 10.8891Z" stroke="#BBD700" stroke-linecap="round" stroke-linejoin="round"/>
</svg>
