<svg width="15" height="15" viewBox="0 0 15 15" fill="none" xmlns="http://www.w3.org/2000/svg">
<path d="M11.5105 0.849365L13.9999 3.28958L11.5105 5.7298" stroke="white" stroke-linecap="round" stroke-linejoin="round"/>
<path d="M9.021 3.28955H13.9999" stroke="white" stroke-linecap="round" stroke-linejoin="round"/>
<path d="M13.3776 10.5614V12.3915C13.3783 12.5614 13.3428 12.7295 13.2734 12.8852C13.2039 13.0409 13.1021 13.1806 12.9744 13.2955C12.8466 13.4103 12.6959 13.4978 12.5317 13.5522C12.3675 13.6066 12.1935 13.6269 12.0209 13.6116C10.1057 13.4076 8.26615 12.7661 6.64987 11.7387C5.14614 10.8021 3.87124 9.55245 2.9157 8.07849C1.8639 6.48701 1.20934 4.67506 1.00505 2.78942C0.989499 2.62073 1.00995 2.4507 1.06511 2.29018C1.12027 2.12966 1.20892 1.98215 1.32542 1.85705C1.44193 1.73195 1.58373 1.632 1.7418 1.56356C1.89987 1.49512 2.07075 1.45969 2.24355 1.45953H4.11064C4.41267 1.45662 4.70549 1.56146 4.9345 1.75451C5.16351 1.94756 5.31309 2.21565 5.35536 2.5088C5.43417 3.09448 5.58031 3.66955 5.79102 4.22302C5.87475 4.44137 5.89287 4.67867 5.84324 4.9068C5.7936 5.13494 5.67828 5.34435 5.51095 5.51021L4.72055 6.28496C5.60652 7.81223 6.89661 9.07678 8.45472 9.94521L9.24512 9.17046C9.41434 9.00644 9.62797 8.89341 9.86071 8.84475C10.0935 8.7961 10.3355 8.81386 10.5583 8.89594C11.123 9.10247 11.7096 9.24572 12.3071 9.32297C12.6095 9.36478 12.8856 9.51404 13.0829 9.74237C13.2803 9.9707 13.3852 10.2622 13.3776 10.5614Z" stroke="white" stroke-linecap="round" stroke-linejoin="round"/>
</svg>
