<svg width="36" height="30" viewBox="0 0 36 30" fill="none" xmlns="http://www.w3.org/2000/svg">
<path d="M1 1H6.2L11.9 24.3" stroke-width="2" stroke-miterlimit="10" stroke-linecap="round" stroke-linejoin="round"/>
<path d="M8.19995 9.3999H34.2L29.7999 22.0999H11.5" stroke-width="2" stroke-miterlimit="10" stroke-linecap="round" stroke-linejoin="round"/>
<path d="M12.4 29.0001C13.615 29.0001 14.6 28.0151 14.6 26.8001C14.6 25.5851 13.615 24.6001 12.4 24.6001C11.1849 24.6001 10.2 25.5851 10.2 26.8001C10.2 28.0151 11.1849 29.0001 12.4 29.0001Z" stroke-width="2" stroke-miterlimit="10" stroke-linecap="round" stroke-linejoin="round"/>
<path d="M27.5999 29.0001C28.8149 29.0001 29.7999 28.0151 29.7999 26.8001C29.7999 25.5851 28.8149 24.6001 27.5999 24.6001C26.3849 24.6001 25.3999 25.5851 25.3999 26.8001C25.3999 28.0151 26.3849 29.0001 27.5999 29.0001Z" stroke-width="2" stroke-miterlimit="10" stroke-linecap="round" stroke-linejoin="round"/>
<path d="M14.1001 25.1001H26.0001"  stroke-width="2" stroke-miterlimit="10" stroke-linecap="round" stroke-linejoin="round"/>
</svg>
