<svg width="10" height="18" viewBox="0 0 10 18" fill="none" xmlns="http://www.w3.org/2000/svg">
<path fill-rule="evenodd" clip-rule="evenodd" d="M9 1.72754H1V14.0039H9V1.72754ZM9 14.9858H1V16.459H9V14.9858ZM1 0.745605C0.447754 0.745605 0 1.18506 0 1.72754V16.459C0 17.0015 0.447754 17.4409 1 17.4409H9C9.55225 17.4409 10 17.0015 10 16.459V1.72754C10 1.18506 9.55225 0.745605 9 0.745605H1ZM3.5 3.20117C3.5 2.92969 3.72388 2.70996 4 2.70996H6C6.27612 2.70996 6.5 2.92969 6.5 3.20117C6.5 3.29053 6.47559 3.37451 6.43286 3.44678C6.34644 3.59326 6.18481 3.69189 6 3.69189H4C3.94653 3.69189 3.89526 3.68359 3.84717 3.66846C3.83032 3.66309 3.81396 3.65674 3.79785 3.6499C3.62231 3.57373 3.5 3.40137 3.5 3.20117Z"/>
</svg>
