<svg width="44" height="47" viewBox="0 0 44 47" fill="none" xmlns="http://www.w3.org/2000/svg">
<path d="M21.2 9.7999H1.19995L2.69995 0.399902H19.7999L21.2 9.7999Z" fill="#BBD700" stroke="black" stroke-width="0.75" stroke-miterlimit="10" stroke-linecap="round" stroke-linejoin="round"/>
<path d="M7.2999 1.2998H4.4999L3.3999 8.7998H6.1999L7.2999 1.2998Z" fill="#FFFF00"/>
<path d="M11.2 10V28.1" stroke="black" stroke-width="0.75" stroke-miterlimit="10" stroke-linecap="round" stroke-linejoin="round"/>
<path d="M14.2 10V16.2" stroke="black" stroke-width="0.75" stroke-miterlimit="10" stroke-linecap="round" stroke-linejoin="round"/>
<path d="M11.9 29H10.5V45H11.9V29Z" fill="#D3A344" stroke="black" stroke-width="0.75" stroke-miterlimit="10" stroke-linecap="round" stroke-linejoin="round"/>
<path d="M19.7999 45.8C18.3999 45.3 15.1 45 11.3 45C7.49995 45 3.99995 45.3 2.69995 45.8" stroke="black" stroke-width="0.75" stroke-miterlimit="10" stroke-linecap="round" stroke-linejoin="round"/>
<path d="M15.4 27.7H7V29H15.4V27.7Z" fill="#F5521E" stroke="black" stroke-width="0.75" stroke-miterlimit="10" stroke-linecap="round" stroke-linejoin="round"/>
<path d="M14.2001 16.5998C14.421 16.5998 14.6 16.4207 14.6 16.1998C14.6 15.9789 14.421 15.7998 14.2001 15.7998C13.9791 15.7998 13.8 15.9789 13.8 16.1998C13.8 16.4207 13.9791 16.5998 14.2001 16.5998Z" stroke="black" stroke-width="0.75" stroke-miterlimit="10" stroke-linecap="round" stroke-linejoin="round"/>
<path d="M42.7 25.5H22V44.6H42.7V25.5Z" fill="#D3A344"/>
<path d="M42.7999 25.5H21.8999V44.6H42.7999V25.5Z" stroke="black" stroke-width="0.75" stroke-miterlimit="10" stroke-linecap="round" stroke-linejoin="round"/>
<path d="M26.8998 44.8999V46.0999H24.2998V44.8999" stroke="black" stroke-width="0.75" stroke-miterlimit="10" stroke-linecap="round" stroke-linejoin="round"/>
<path d="M40.6 44.8999V46.0999H38V44.8999" stroke="black" stroke-width="0.75" stroke-miterlimit="10" stroke-linecap="round" stroke-linejoin="round"/>
<path d="M22 31.3H42.7" stroke="black" stroke-width="0.75" stroke-miterlimit="10" stroke-linecap="round" stroke-linejoin="round"/>
<path d="M30.7998 27.8H33.8998" stroke="black" stroke-width="0.75" stroke-miterlimit="10" stroke-linecap="round" stroke-linejoin="round"/>
<path d="M30.7998 33.5H33.8998" stroke="black" stroke-width="0.75" stroke-miterlimit="10" stroke-linecap="round" stroke-linejoin="round"/>
<path d="M22 37.3H42.7" stroke="black" stroke-width="0.75" stroke-miterlimit="10" stroke-linecap="round" stroke-linejoin="round"/>
<path d="M38.5999 24.8H32.0999L30.2 16.5H36.7L38.5999 24.8Z" fill="#BBD700" stroke="black" stroke-width="0.75" stroke-miterlimit="10" stroke-linecap="round" stroke-linejoin="round"/>
<path d="M30.5999 18.6001L29.2 24.8001" stroke="black" stroke-width="0.75" stroke-miterlimit="10" stroke-linecap="round" stroke-linejoin="round"/>
</svg>
