<svg width="54" height="51" viewBox="0 0 54 51" fill="none" xmlns="http://www.w3.org/2000/svg">
<path d="M3.19995 34.7L7.19995 46.5999" stroke="black" stroke-width="0.75" stroke-miterlimit="10" stroke-linecap="round" stroke-linejoin="round"/>
<path d="M6.69995 50.4C6.29995 50.1 5.99995 49.8 5.89995 49.3L5.19995 47.3L9.19995 46L9.89995 48C10.2 48.9 9.87813 49.9 9.07812 50.4" fill="#F5521E"/>
<path d="M6.69995 50.4C6.29995 50.1 5.99995 49.8 5.89995 49.3L5.19995 47.3L9.19995 46L9.89995 48C10.2 48.9 9.87813 49.9 9.07812 50.4" stroke="black" stroke-width="0.75" stroke-miterlimit="10" stroke-linecap="round" stroke-linejoin="round"/>
<path d="M3.8 34.5L2.5 34.9C2 35.1 1.6 34.8 1.4 34.4L1 33.2L4 32.2L4.4 33.4C4.5 33.8 4.3 34.3 3.8 34.5Z" stroke="black" stroke-width="0.75" stroke-miterlimit="10" stroke-linecap="round" stroke-linejoin="round"/>
<path d="M3 50.3999H11.3" stroke="black" stroke-width="0.75" stroke-miterlimit="10" stroke-linecap="round" stroke-linejoin="round"/>
<path d="M14.3999 50.3999H30.6999" stroke="black" stroke-width="0.75" stroke-miterlimit="10" stroke-linecap="round" stroke-linejoin="round"/>
<path d="M13.8 35.2C15.1808 35.2 16.3 34.0807 16.3 32.7C16.3 31.3192 15.1808 30.2 13.8 30.2C12.4193 30.2 11.3 31.3192 11.3 32.7C11.3 34.0807 12.4193 35.2 13.8 35.2Z" fill="#F5521E" stroke="black" stroke-width="0.75" stroke-miterlimit="10" stroke-linecap="round" stroke-linejoin="round"/>
<path d="M22 34.4C31.2232 34.4 38.7001 26.9232 38.7001 17.7C38.7001 8.47685 31.2232 1 22 1C12.7769 1 5.30005 8.47685 5.30005 17.7C5.30005 26.9232 12.7769 34.4 22 34.4Z" fill="#BBD700" stroke="black" stroke-width="0.75" stroke-miterlimit="10" stroke-linecap="round" stroke-linejoin="round"/>
<path d="M18.9001 27.6001C19.9001 29.2001 21.5001 33.2001 22.3001 36.5001C22.6001 36.1001 23.8001 34.7001 24.3001 34.3001L28.1001 33.3001C23.5001 35.8001 22.9001 39.3001 22.9001 40.2001V48.3001C22.9001 48.8001 23.4001 49.9001 24.4001 50.4001H19.1001C20.1001 49.9001 20.6001 48.9001 20.6001 48.3001V39.2001C20.6001 37.4001 20.3001 34.0001 17.6001 28.5001" fill="white"/>
<path d="M18.9001 27.6001C19.9001 29.2001 21.5001 33.2001 22.3001 36.5001C22.6001 36.1001 23.8001 34.7001 24.3001 34.3001L28.1001 33.3001C23.5001 35.8001 22.9001 39.3001 22.9001 40.2001V48.3001C22.9001 48.8001 23.4001 49.9001 24.4001 50.4001H19.1001C20.1001 49.9001 20.6001 48.9001 20.6001 48.3001V39.2001C20.6001 37.4001 20.3001 34.0001 17.6001 28.5001" stroke="black" stroke-width="0.75" stroke-miterlimit="10" stroke-linecap="round" stroke-linejoin="round"/>
<path d="M2.69995 17.7C3.39995 18.3 4.29995 18.7 5.39995 18.7C6.49995 18.7 7.49995 18.3 8.09995 17.7C7.39995 17.1 6.49995 16.7 5.39995 16.7C4.29995 16.7 3.39995 17.1 2.69995 17.7Z" fill="#BBD700" stroke="black" stroke-width="0.75" stroke-miterlimit="10" stroke-linecap="round" stroke-linejoin="round"/>
<path d="M33.8 19.8C34.3 20.5 35.2 21.1 36.3 21.3C37.4 21.5 38.4001 21.3 39.2001 20.9C38.7001 20.2 37.8001 19.6 36.7001 19.4C35.6001 19.2 34.5 19.4 33.8 19.8Z" fill="#BBD700" stroke="black" stroke-width="0.75" stroke-miterlimit="10" stroke-linecap="round" stroke-linejoin="round"/>
<path d="M32.2 8.59988C33.1 8.79988 34.0999 8.59988 35.0999 8.09988C36.0999 7.59988 36.7 6.69988 37 5.89988C36.1 5.69988 35.0999 5.89988 34.0999 6.39988C33.0999 6.89988 32.5 7.69988 32.2 8.59988Z" fill="#BBD700" stroke="black" stroke-width="0.75" stroke-miterlimit="10" stroke-linecap="round" stroke-linejoin="round"/>
<path d="M7.30005 27.7999C8.20005 27.8999 9.20005 27.6999 10.1 27.0999C11 26.4999 11.6 25.5999 11.8 24.7999C10.9 24.6999 9.90005 24.8999 9.00005 25.4999C8.20005 26.0999 7.60005 26.9999 7.30005 27.7999Z" fill="#BBD700" stroke="black" stroke-width="0.75" stroke-miterlimit="10" stroke-linecap="round" stroke-linejoin="round"/>
<path d="M4.5 11.9C4.8 12.7 5.5 13.5 6.5 14C7.5 14.5 8.5 14.5 9.4 14.3C9.1 13.5 8.4 12.7 7.4 12.2C6.5 11.7 5.4 11.6 4.5 11.9Z" fill="#BBD700" stroke="black" stroke-width="0.75" stroke-miterlimit="10" stroke-linecap="round" stroke-linejoin="round"/>
<path d="M28.1 30.9C29.2598 30.9 30.2 29.9597 30.2 28.7999C30.2 27.6402 29.2598 26.7 28.1 26.7C26.9402 26.7 26 27.6402 26 28.7999C26 29.9597 26.9402 30.9 28.1 30.9Z" fill="#F5521E" stroke="black" stroke-width="0.75" stroke-miterlimit="10" stroke-linecap="round" stroke-linejoin="round"/>
<path d="M13.6001 18.5C14.9808 18.5 16.1001 17.3807 16.1001 16C16.1001 14.6193 14.9808 13.5 13.6001 13.5C12.2194 13.5 11.1001 14.6193 11.1001 16C11.1001 17.3807 12.2194 18.5 13.6001 18.5Z" fill="#F5521E" stroke="black" stroke-width="0.75" stroke-miterlimit="10" stroke-linecap="round" stroke-linejoin="round"/>
<path d="M26.6 12.6999C27.9254 12.6999 29 11.6254 29 10.2999C29 8.97442 27.9254 7.8999 26.6 7.8999C25.2745 7.8999 24.2 8.97442 24.2 10.2999C24.2 11.6254 25.2745 12.6999 26.6 12.6999Z" fill="#F5521E" stroke="black" stroke-width="0.75" stroke-miterlimit="10" stroke-linecap="round" stroke-linejoin="round"/>
<path d="M20.2001 25.3C19.6001 27.3 17.8001 28.8 15.6001 28.8" stroke="black" stroke-width="0.75" stroke-miterlimit="10" stroke-linecap="round" stroke-linejoin="round"/>
<path d="M40.7999 50.5L46.7999 25H38.2L32.2 50.5" stroke="black" stroke-width="0.75" stroke-miterlimit="10" stroke-linecap="round" stroke-linejoin="round"/>
<path d="M46.8 25L52.8 50.5" stroke="black" stroke-width="0.75" stroke-miterlimit="10" stroke-linecap="round" stroke-linejoin="round"/>
<path d="M44.1999 50.5L42.8999 45.3" stroke="black" stroke-width="0.75" stroke-miterlimit="10" stroke-linecap="round" stroke-linejoin="round"/>
<path d="M45.7001 29.1001H37.3" stroke="black" stroke-width="0.75" stroke-miterlimit="10" stroke-linecap="round" stroke-linejoin="round"/>
<path d="M44.8999 32.7H36.3999" stroke="black" stroke-width="0.75" stroke-miterlimit="10" stroke-linecap="round" stroke-linejoin="round"/>
<path d="M43.9999 36.3H35.5999" stroke="black" stroke-width="0.75" stroke-miterlimit="10" stroke-linecap="round" stroke-linejoin="round"/>
<path d="M43.0999 39.8999H34.7" stroke="black" stroke-width="0.75" stroke-miterlimit="10" stroke-linecap="round" stroke-linejoin="round"/>
<path d="M42.3 43.6001H33.8" stroke="black" stroke-width="0.75" stroke-miterlimit="10" stroke-linecap="round" stroke-linejoin="round"/>
<path d="M41.3999 47.2H33.0999" stroke="black" stroke-width="0.75" stroke-miterlimit="10" stroke-linecap="round" stroke-linejoin="round"/>
<path d="M51.8 47.2H43.5" stroke="black" stroke-width="0.75" stroke-miterlimit="10" stroke-linecap="round" stroke-linejoin="round"/>
</svg>
