<svg width="24" height="24" viewBox="0 0 24 24" fill="none" xmlns="http://www.w3.org/2000/svg">
<path d="M22.625 0.75L22.425 0.7875L15.75 3.375L8.25 0.75L1.2 3.125C0.9375 3.2125 0.75 3.4375 0.75 3.725V22.625C0.75 22.7908 0.815848 22.9497 0.933058 23.0669C1.05027 23.1842 1.20924 23.25 1.375 23.25L1.575 23.2125L8.25 20.625L15.75 23.25L22.8 20.875C23.0625 20.7875 23.25 20.5625 23.25 20.275V1.375C23.25 1.20924 23.1842 1.05027 23.0669 0.933058C22.9497 0.815848 22.7908 0.75 22.625 0.75ZM9.5 3.8375L14.5 5.5875V20.1625L9.5 18.4125V3.8375ZM3.25 5.075L7 3.8125V18.4375L3.25 19.8875V5.075ZM20.75 18.925L17 20.1875V5.575L20.75 4.125V18.925Z" fill="#48494A"/>
</svg>
