<svg width="15" height="15" viewBox="0 0 15 15" fill="none" xmlns="http://www.w3.org/2000/svg">
<path d="M12.0117 2.42847L11.918 2.44565L8.78906 3.63151L5.27344 2.42847L1.96875 3.51694C1.8457 3.55704 1.75781 3.66016 1.75781 3.79192V12.4538C1.75781 12.5298 1.78868 12.6027 1.84362 12.6564C1.89856 12.7101 1.97308 12.7403 2.05078 12.7403L2.14453 12.7231L5.27344 11.5372L8.78906 12.7403L12.0938 11.6518C12.2168 11.6117 12.3047 11.5086 12.3047 11.3768V2.71491C12.3047 2.63894 12.2738 2.56608 12.2189 2.51236C12.1639 2.45865 12.0894 2.42847 12.0117 2.42847ZM5.85938 3.84348L8.20312 4.64551V11.3253L5.85938 10.5232V3.84348ZM2.92969 4.41063L4.6875 3.83202V10.5347L2.92969 11.1992V4.41063ZM11.1328 10.7581L9.375 11.3367V4.63978L11.1328 3.97524V10.7581Z" fill="white"/>
</svg>
