<svg width="53" height="45" viewBox="0 0 53 45" fill="none" xmlns="http://www.w3.org/2000/svg">
<path d="M33.9994 19.3879L33.3283 19.6079C33.3818 19.9474 33.355 20.2947 33.2501 20.622C33.1452 20.9493 32.965 21.2474 32.7241 21.4925C32.4832 21.7376 32.1881 21.9229 31.8627 22.0335C31.5372 22.1441 31.1904 22.1769 30.8499 22.1293C30.5095 22.0817 30.1849 21.955 29.9023 21.7594C29.6197 21.5638 29.3868 21.3047 29.2223 21.0029C29.0579 20.7011 28.9665 20.365 28.9554 20.0215C28.9443 19.678 29.0138 19.3367 29.1584 19.0249H29.0924L28.4983 18.5629L28.6853 16.3629L31.6669 10.3569L33.8674 10.7749L34.5055 17.3749L33.9994 19.3879ZM32.3051 12.7879C31.865 12.7109 31.3589 13.5689 31.2048 14.7019C31.0508 15.8349 31.2048 16.8139 31.6449 16.9019C32.085 16.9899 32.5911 16.1209 32.7452 14.9879C32.8992 13.8549 32.7452 12.8319 32.3161 12.6999L32.3051 12.7879Z" fill="white" stroke="black" stroke-width="0.825084" stroke-linecap="round" stroke-linejoin="round"/>
<path d="M32.8113 10.5549L32.3162 12.7549" stroke="black" stroke-width="0.825084" stroke-linecap="round" stroke-linejoin="round"/>
<path d="M31.7329 17.8262C32.1815 18.0469 32.5618 18.3853 32.8331 18.8052" stroke="black" stroke-width="0.825084" stroke-linecap="round" stroke-linejoin="round"/>
<path d="M24.1084 29.585C24.5595 28.903 25.9348 26.527 26.4519 25.735C26.969 24.943 27.145 23.634 26.5949 23.161L27.9592 21.5L29.9066 22.952C29.755 24.2124 29.406 25.4411 28.8724 26.593L27.189 30.102L24.1084 29.585Z" fill="#F5521E" stroke="black" stroke-width="0.825084" stroke-linecap="round" stroke-linejoin="round"/>
<path d="M35.3526 31.29C35.1106 30.509 34.4284 27.847 34.1424 26.956C33.8563 26.065 34.0434 24.756 34.7035 24.437L33.8123 22.512L31.5458 23.337C31.3474 24.5905 31.3474 25.8674 31.5458 27.121L32.217 30.949L35.3526 31.29Z" fill="#F5521E" stroke="black" stroke-width="0.825084" stroke-linecap="round" stroke-linejoin="round"/>
<path d="M45.5579 1.24459L34.5525 37.9666L40.6548 39.7946L51.6602 3.07266L45.5579 1.24459Z" fill="white" stroke="black" stroke-width="0.825084" stroke-miterlimit="10"/>
<path d="M41.3268 16.165C42.273 16.451 42.57 18.244 41.9979 20.18C41.4258 22.116 40.1825 23.48 39.2253 23.172" fill="#F5521E"/>
<path d="M41.3268 16.165C42.273 16.451 42.57 18.244 41.9979 20.18C41.4258 22.116 40.1825 23.48 39.2253 23.172" stroke="black" stroke-width="0.825084" stroke-linecap="round" stroke-linejoin="round"/>
<path d="M49.5573 6.10327C49.8817 5.02084 49.267 3.88044 48.1844 3.55611C47.1017 3.23178 45.9611 3.84633 45.6367 4.92876C45.3123 6.01119 45.927 7.1516 47.0096 7.47593C48.0923 7.80026 49.2329 7.1857 49.5573 6.10327Z" fill="#F5521E" stroke="black" stroke-width="0.825084" stroke-linecap="round" stroke-linejoin="round"/>
<path d="M47.147 14.746L48.1922 11.248" stroke="black" stroke-width="0.825084" stroke-miterlimit="10"/>
<path d="M17.593 8.16655L14.8857 8.65259L18.839 30.6635L21.5463 30.1775L17.593 8.16655Z" fill="white" stroke="black" stroke-width="0.825084" stroke-linecap="round" stroke-linejoin="round"/>
<path d="M23.4703 15.2302L11.8299 17.3202L10.8397 16.6382L9.94849 11.6772L10.6306 10.6982L22.271 8.60815L23.2612 9.29015L24.1524 14.2512L23.4703 15.2302Z" fill="#E6E6E6" stroke="black" stroke-width="0.825084" stroke-linecap="round" stroke-linejoin="round"/>
<path d="M7.66003 17.65C7.05876 17.1249 6.32037 16.782 5.53126 16.6612C4.74214 16.5404 3.93494 16.6468 3.20411 16.968L7.02189 20.268L4.66741 23.007L0.849632 19.707C0.637641 20.4527 0.636698 21.2426 0.846908 21.9889C1.05712 22.7351 1.47024 23.4084 2.04034 23.934C2.61043 24.4595 3.31515 24.8166 4.07613 24.9656C4.8371 25.1146 5.6245 25.0497 6.35076 24.778L14.5034 31.895L17.1 28.925L9.0023 21.775C9.17498 21.0304 9.14124 20.2528 8.90472 19.5259C8.6682 18.7991 8.23786 18.1505 7.66003 17.65Z" fill="white" stroke="black" stroke-width="0.825084" stroke-linecap="round" stroke-linejoin="round"/>
<path d="M7.71509 23.9201L8.32021 23.2271L15.9448 29.8931" stroke="black" stroke-width="0.825084" stroke-linecap="round" stroke-linejoin="round"/>
<path d="M45.6949 28.749H6.18579V31.158H45.6949V28.749Z" fill="#BBD700" stroke="black" stroke-width="0.825084" stroke-linecap="round" stroke-linejoin="round"/>
<path d="M44.9246 31.158H6.95581L8.05604 43.324H43.8244L44.9246 31.158Z" fill="#BBD700" stroke="black" stroke-width="0.825084" stroke-linecap="round" stroke-linejoin="round"/>
<path d="M23.4593 39.551H31.5569V43.951H23.4593C23.0945 43.951 22.7447 43.8062 22.4868 43.5483C22.2289 43.2904 22.084 42.9407 22.084 42.576V40.926C22.084 40.5614 22.2289 40.2116 22.4868 39.9538C22.7447 39.6959 23.0945 39.551 23.4593 39.551Z" fill="white" stroke="black" stroke-width="0.825084" stroke-linecap="round" stroke-linejoin="round"/>
<path d="M31.5569 43.907L38.2793 43.038V40.42L31.5569 39.551V43.907Z" fill="white" stroke="black" stroke-width="0.825084" stroke-linecap="round" stroke-linejoin="round"/>
<path d="M38.4553 41.729H46.9711" stroke="black" stroke-width="0.825084" stroke-linecap="round" stroke-linejoin="round"/>
<path d="M51.482 42.708L49.2376 43.082L47.0261 42.708V40.772L49.2376 40.376L51.482 40.772V42.708Z" fill="white" stroke="black" stroke-width="0.825084" stroke-linecap="round" stroke-linejoin="round"/>
<path d="M23.9983 40.8711H29.9945" stroke="black" stroke-width="0.825084" stroke-linecap="round" stroke-linejoin="round"/>
<path d="M18.7612 39.65L16.7038 43.225H12.556L10.4985 39.65L12.567 36.075H16.7038L18.7612 39.65ZM14.6244 38C14.3045 38 13.9918 38.0948 13.7258 38.2725C13.4599 38.4501 13.2526 38.7027 13.1302 38.9982C13.0077 39.2936 12.9757 39.6187 13.0381 39.9324C13.1005 40.2461 13.2546 40.5342 13.4808 40.7603C13.7069 40.9865 13.9951 41.1405 14.3089 41.2029C14.6226 41.2653 14.9478 41.2333 15.2433 41.1109C15.5388 40.9885 15.7914 40.7812 15.9691 40.5153C16.1469 40.2494 16.2417 39.9368 16.2417 39.617C16.2417 39.1881 16.0713 38.7768 15.768 38.4736C15.4647 38.1703 15.0533 38 14.6244 38Z" fill="white" stroke="black" stroke-width="0.825084" stroke-linecap="round" stroke-linejoin="round"/>
</svg>
