<svg width="53" height="42" viewBox="0 0 53 42" fill="none" xmlns="http://www.w3.org/2000/svg">
<path d="M52.4001 33.9001C52.4001 17.8001 40.8001 0.600098 26.5001 0.600098C12.2001 0.600098 0.600098 17.8001 0.600098 33.9001H52.4001Z" fill="#BBD700" stroke="black" stroke-width="0.75" stroke-miterlimit="10" stroke-linecap="round" stroke-linejoin="round"/>
<path d="M26.6001 33.9001V3.30005L6.90015 33.9001H26.6001Z" fill="white" stroke="black" stroke-width="0.75" stroke-miterlimit="10" stroke-linecap="round" stroke-linejoin="round"/>
<path d="M6.9 33.9001L26.6 3.40015L4 22.9001C6.3 24.9001 8.4 30.6001 6.9 33.9001Z" fill="#BBD700" stroke="black" stroke-width="0.75" stroke-miterlimit="10" stroke-linecap="round" stroke-linejoin="round"/>
<path d="M26.6002 30.6H15.8002C14.2002 30.6 11.4002 29.8 10.2002 28.8" stroke="black" stroke-width="0.75" stroke-miterlimit="10" stroke-linecap="round" stroke-linejoin="round"/>
<path d="M37.0001 37.9001C35.9001 37.9001 34.9001 37.4001 34.9001 36.0001V30.6001H37.0001" fill="#F5521E"/>
<path d="M37.0001 37.9001C35.9001 37.9001 34.9001 37.4001 34.9001 36.0001V30.6001H37.0001" stroke="black" stroke-width="0.75" stroke-miterlimit="10" stroke-linecap="round" stroke-linejoin="round"/>
<path d="M47.7002 37.9001C48.8002 37.9001 49.8002 37.4001 49.8002 36.0001V30.6001H47.7002" fill="#F5521E"/>
<path d="M47.7002 37.9001C48.8002 37.9001 49.8002 37.4001 49.8002 36.0001V30.6001H47.7002" stroke="black" stroke-width="0.75" stroke-miterlimit="10" stroke-linecap="round" stroke-linejoin="round"/>
<path d="M50.3001 15.0002H34.1001V19.5002H50.3001V15.0002Z" fill="white" stroke="black" stroke-width="0.75" stroke-miterlimit="10" stroke-linecap="round" stroke-linejoin="round"/>
<path d="M45.8 40.9002H38.6C37.7 40.9002 37 40.2002 37 39.3002V20.3002C37 19.4002 37.7 18.7002 38.6 18.7002H45.8C46.7 18.7002 47.4 19.4002 47.4 20.3002V39.3002C47.4 40.2002 46.7 40.9002 45.8 40.9002Z" fill="#F5521E" stroke="black" stroke-width="0.75" stroke-miterlimit="10" stroke-linecap="round" stroke-linejoin="round"/>
<path d="M47.4 23.6001C47.4 24.9001 46.3 26.0001 45 26.0001H39.4C38.1 26.0001 37 24.9001 37 23.6001" stroke="black" stroke-width="0.75" stroke-miterlimit="10" stroke-linecap="round" stroke-linejoin="round"/>
<path d="M40.1001 23.8V28.3" stroke="black" stroke-width="0.75" stroke-miterlimit="10" stroke-linecap="round" stroke-linejoin="round"/>
<path d="M44.5 23.8V28.3" stroke="black" stroke-width="0.75" stroke-miterlimit="10" stroke-linecap="round" stroke-linejoin="round"/>
<path d="M40.1001 14.4001V18.5001" stroke="black" stroke-width="0.75" stroke-miterlimit="10" stroke-linecap="round" stroke-linejoin="round"/>
<path d="M44.5 14.4001V18.5001" stroke="black" stroke-width="0.75" stroke-miterlimit="10" stroke-linecap="round" stroke-linejoin="round"/>
<path d="M45.2002 30.6001H39.2002V34.4001H45.2002V30.6001Z" stroke="black" stroke-width="0.75" stroke-miterlimit="10" stroke-linecap="round" stroke-linejoin="round"/>
<path d="M38.2002 36.6001H46.2002" stroke="black" stroke-width="0.75" stroke-miterlimit="10" stroke-linecap="round" stroke-linejoin="round"/>
<path d="M12.1 36.3001C12.5 36.7001 13.1 36.9001 13.7 36.9001H31V40.3001H13.7C12.4 40.3001 11.3 39.2001 11.3 37.9001C11.3 36.6001 12.4 35.5001 13.7 35.5001V32.1001C12.4 32.1001 11.3 33.2001 11.3 34.5001V38.0001" fill="#BBD700"/>
<path d="M12.1 36.3001C12.5 36.7001 13.1 36.9001 13.7 36.9001H31V40.3001H13.7C12.4 40.3001 11.3 39.2001 11.3 37.9001C11.3 36.6001 12.4 35.5001 13.7 35.5001V32.1001C12.4 32.1001 11.3 33.2001 11.3 34.5001V38.0001" stroke="black" stroke-width="0.75" stroke-miterlimit="10" stroke-linecap="round" stroke-linejoin="round"/>
</svg>
